<svg viewBox="0 0 160 160" fill="none" xmlns="http://www.w3.org/2000/svg">
  <path fill-rule="evenodd" clip-rule="evenodd" d="M0.457031 79.5652C0.457031 123.196 35.8256 158.564 79.4559 158.564C123.086 158.564 158.457 123.196 158.457 79.5652C158.457 35.9349 123.086 0.566406 79.4559 0.566406C35.8256 0.566406 0.457031 35.9349 0.457031 79.5652Z" fill="#0C0C4F"/>
  <path fill-rule="evenodd" clip-rule="evenodd" d="M44.6122 60.954L46.5623 54.9292C46.9587 53.7038 47.9258 52.7503 49.1557 52.3743L55.21 50.5125C56.048 50.2565 56.0548 49.0742 55.2236 48.8047L49.1965 46.8545C47.9734 46.4582 47.0198 45.491 46.6416 44.2611L44.782 38.2069C44.5261 37.3711 43.3438 37.362 43.0742 38.1955L41.1241 44.2204C40.7277 45.4435 39.7606 46.397 38.5307 46.7753L32.4764 48.6348C31.6384 48.893 31.6293 50.0731 32.4628 50.3426L38.4899 52.2927C39.713 52.6891 40.6666 53.6585 41.0448 54.8884L42.9044 60.9404C43.1603 61.7784 44.3426 61.7875 44.6122 60.954Z" fill="#FAFAFA"/>
  <path fill-rule="evenodd" clip-rule="evenodd" d="M140.305 57.4474C137.809 54.6564 133.914 53.085 130.127 52.4406C126.31 51.8217 122.307 51.8791 118.539 52.5486C110.914 53.8384 103.987 56.9956 97.9451 60.8905C94.8077 62.802 92.1321 65.0138 89.36 67.2664C88.0244 68.4056 86.8067 69.6188 85.5386 70.8146L82.0733 74.2624C78.3081 78.1981 74.5968 81.7829 71.0061 84.7542C67.4007 87.7118 64.03 89.9581 60.7082 91.5268C57.3885 93.1036 53.8364 94.0309 49.2065 94.1794C44.6174 94.3412 39.1877 93.5129 33.3799 92.1458C27.5409 90.7847 21.4093 88.8446 14.5575 87.1752C16.9482 93.8079 20.5485 99.6691 25.1707 105.027C29.8472 110.292 35.6868 115.091 43.1884 118.246C50.5817 121.472 59.8727 122.63 68.5601 120.883C77.2705 119.207 84.9143 115.176 91.093 110.515C97.2874 105.805 102.299 100.441 106.524 94.8644C107.69 93.3236 108.307 92.4613 109.151 91.257L111.484 87.8015C113.105 85.6641 114.581 83.2305 116.185 81.1128C119.331 76.6776 122.433 72.2475 126.037 68.1661C127.851 66.096 129.764 64.1159 132.022 62.213C133.148 61.2842 134.365 60.3752 135.713 59.5564C137.081 58.6732 138.526 57.9819 140.305 57.4474Z" fill="#EC796B"/>
  <path fill-rule="evenodd" clip-rule="evenodd" d="M140.304 57.4476C137.623 50.6817 132.638 44.9863 125.947 40.7836C119.297 36.627 110.061 34.5058 100.908 36.314C96.3868 37.1885 92.0062 38.8721 88.162 41.1141C84.3351 43.3472 80.9059 46.0354 77.9372 48.9193C76.4553 50.3661 75.11 51.8753 73.7736 53.3931L70.3099 57.8092L64.9599 64.9181C58.1397 74.0645 50.7951 84.7835 38.7424 87.9596C26.91 91.0777 21.7781 88.3162 14.5565 87.1754C15.8769 90.5845 17.5126 93.8953 19.73 96.8078C21.9061 99.7793 24.4764 102.57 27.672 104.963C29.287 106.112 30.992 107.246 32.8856 108.207C34.7706 109.137 36.8035 109.955 38.9733 110.57C43.2892 111.753 48.1483 112.168 52.8531 111.531C57.56 110.903 62.0589 109.412 65.9916 107.431C69.9532 105.468 73.4041 103.078 76.4856 100.556C82.6111 95.469 87.3758 89.8484 91.4005 84.1669C93.4249 81.3263 95.2624 78.4321 96.962 75.5371L98.9623 72.0905C99.5737 71.083 100.192 70.0693 100.82 69.1252C103.355 65.3323 105.834 62.291 108.845 60.0082C111.814 57.6664 115.949 55.9362 121.474 55.5342C126.976 55.1275 133.328 55.8789 140.304 57.4476Z" fill="#FAFAFA"/>
  <path fill-rule="evenodd" clip-rule="evenodd" d="M110.538 113.664C110.538 118.633 114.569 122.664 119.538 122.664C124.508 122.664 128.533 118.633 128.533 113.664C128.533 108.695 124.508 104.664 119.538 104.664C114.569 104.664 110.538 108.695 110.538 113.664Z" fill="#EC796B"/>
</svg>
